<svg xmlns="http://www.w3.org/2000/svg" viewBox="0 0 64 64" role="img" aria-label="Endurance Aero Labs">
  <rect width="64" height="64" fill="#0B0E14"/>
  <path d="M 4 54 Q 32 6 60 54" fill="none" stroke="#E0995A" stroke-width="0.9" stroke-dasharray="2.5 2.5"/>
  <circle cx="32" cy="58" r="3" fill="#E0995A"/>
  <rect x="6" y="28" width="20" height="4" fill="#EDE7D9"/>
  <rect x="38" y="28" width="20" height="4" fill="#EDE7D9"/>
  <rect x="28" y="26" width="8" height="8" fill="#EDE7D9"/>
  <rect x="26" y="29.5" width="2" height="1" fill="#EDE7D9"/>
  <rect x="36" y="29.5" width="2" height="1" fill="#EDE7D9"/>
  <rect x="31.5" y="22" width="1" height="4" fill="#EDE7D9"/>
  <circle cx="32" cy="20" r="3" fill="#0B0E14" stroke="#EDE7D9" stroke-width="1.3"/>
  <circle cx="32" cy="20" r="0.7" fill="#EDE7D9"/>
  <g stroke="#0B0E14" stroke-width="0.6">
    <line x1="10" y1="28" x2="10" y2="32"/>
    <line x1="14" y1="28" x2="14" y2="32"/>
    <line x1="18" y1="28" x2="18" y2="32"/>
    <line x1="22" y1="28" x2="22" y2="32"/>
    <line x1="42" y1="28" x2="42" y2="32"/>
    <line x1="46" y1="28" x2="46" y2="32"/>
    <line x1="50" y1="28" x2="50" y2="32"/>
    <line x1="54" y1="28" x2="54" y2="32"/>
    <line x1="6" y1="30" x2="26" y2="30"/>
    <line x1="38" y1="30" x2="58" y2="30"/>
  </g>
</svg>
